{"title":"Cats and Dogs The Revenge of Kitty Galore DVDRip XviD-ARROW","uid":5901275,"size":745098970,"categoryP":"video","categoryS":"movies","magnet":"?xt=urn:btih:bfd4b33e2f4900a9a2d900770b1fe611232a3971&amp;dn=Cats+and+Dogs+The+Revenge+of+Kitty+Galore+DVDRip+XviD-ARROW&amp;tr=udp%3A%2F%2Ftracker.openbittorrent.com%3A80&amp;tr=udp%3A%2F%2Fopen.demonii.com%3A1337&amp;tr=udp%3A%2F%2Ftracker.coppersurfer.tk%3A6969&amp;tr=udp%3A%2F%2Fexodus.desync.com%3A6969","seeders":1,"leechers":0,"uploader":"IwannaFan2","files":5,"time":1287681316,"description":"Filename:\nCats and Dogs The Revenge of Kitty Galore DVDRip XviD-ARROW\n &lt;a href=&quot;\nhttp://www.imdb.com/title/tt1287468/&quot; rel=&quot;nofollow&quot; target=&quot;_NEW&quot;&gt;\nhttp://www.imdb.com/title/tt1287468/&lt;/a&gt;\n\nVideo\nID                               : 0\nFormat                           : MPEG-4 Visual\nFormat profile                   : AdvancedSimple@L5\nFormat settings, BVOP            : Yes\nFormat settings, QPel            : No\nFormat settings, GMC             : No warppoints\nFormat settings, Matrix          : Default (H.263)\nMuxing mode                      : Packed bitstream\nCodec ID                         : XVID\nCodec ID/Hint                    : XviD\nDuration                         : 1h 22mn\nBit rate                         : 1 017 Kbps\nWidth                            : 624 pixels\nHeight                           : 352 pixels\nDisplay aspect ratio             : 16:9\nFrame rate                       : 23.976 fps\nResolution                       : 24 bits\nColorimetry                      : 4:2:0\nScan type                        : Progressive\nBits/(Pixel*Frame)               : 0.193\nStream size                      : 599 MiB (86%)\nWriting library                  : XviD 57\n\nAudio\nID                               : 1\nFormat                           : MPEG Audio\nFormat version                   : Version 1\nFormat profile                   : Layer 3\nFormat_Settings_Mode             : Joint stereo / MS Stereo\nCodec ID                         : 55\nCodec ID/Hint                    : MP3\nDuration                         : 1h 22mn\nBit rate mode                    : Variable\nBit rate                         : 156 Kbps\nMinimum bit rate                 : 32.0 Kbps\nChannel(s)                       : 2 channels\nSampling rate                    : 48.0 KHz\nResolution                       : 16 bits\nStream size                      : 92.1 MiB (13%)\nAlignment                        : Aligned on interleaves\nInterleave, duration             : 24 ms (0.58 video frame)\nInterleave, preload duration     : 117 ms\nWriting library                  : LAME3.98b\nEncoding settings                : -m j -V 3 -q 0 -lowpass 18 --vbr-new -b 32","torrent":{"xt":"urn:btih:bfd4b33e2f4900a9a2d900770b1fe611232a3971","amp;dn":"Cats+and+Dogs+The+Revenge+of+Kitty+Galore+DVDRip+XviD-ARROW","amp;tr":["udp%3A%2F%2Ftracker.openbittorrent.com%3A80","udp%3A%2F%2Fopen.demonii.com%3A1337","udp%3A%2F%2Ftracker.coppersurfer.tk%3A6969","udp%3A%2F%2Fexodus.desync.com%3A6969"],"infoHash":"bfd4b33e2f4900a9a2d900770b1fe611232a3971","infoHashBuffer":{"type":"Buffer","data":[191,212,179,62,47,73,0,169,162,217,0,119,11,31,230,17,35,42,57,113]},"announce":[],"urlList":[]}}